<svg width="135" height="153" viewBox="0 0 135 153" fill="none" xmlns="http://www.w3.org/2000/svg">
<path d="M134.908 0L122.617 137.684L67.3712 153L12.2774 137.706L0 0H134.908Z" fill="#264DE4"/>
<path d="M112.095 128.917L122.598 11.2593H67.4539V141.293L112.095 128.917Z" fill="#2965F1"/>
<path d="M28.1458 62.3325L29.6595 79.2214H67.4539V62.3325H28.1458Z" fill="#EBEBEB"/>
<path d="M67.4539 28.1484H67.3955H25.1042L26.6395 45.0377H67.4539V28.1484Z" fill="#EBEBEB"/>
<path d="M67.4538 123.767V106.195L67.3798 106.215L48.5704 101.136L47.368 87.666H38.2281H30.4141L32.7802 114.184L67.3761 123.788L67.4538 123.767Z" fill="#EBEBEB"/>
<path d="M88.1925 79.2211L86.2321 101.125L67.3955 106.209V123.78L102.019 114.184L102.273 111.331L106.242 66.8674L106.654 62.3323L109.703 28.1484H67.3955V45.0377H91.1939L89.6571 62.3323H67.3955V79.2211H88.1925Z" fill="white"/>
</svg>
