<svg width="90" height="134" viewBox="0 0 90 134" fill="none" xmlns="http://www.w3.org/2000/svg">
<path d="M22.3333 134C34.6613 134 44.6667 123.995 44.6667 111.667V89.3335H22.3333C10.0053 89.3335 0 99.3388 0 111.667C0 123.995 10.0053 134 22.3333 134Z" fill="#0ACF83"/>
<path d="M0 66.9998C0 54.6718 10.0053 44.6665 22.3333 44.6665H44.6667V89.3332H22.3333C10.0053 89.3332 0 79.3278 0 66.9998Z" fill="#A259FF"/>
<path d="M0 22.3333C0 10.0053 10.0053 0 22.3333 0H44.6667V44.6667H22.3333C10.0053 44.6667 0 34.6613 0 22.3333Z" fill="#F24E1E"/>
<path d="M44.6667 0H67.0001C79.3281 0 89.3334 10.0053 89.3334 22.3333C89.3334 34.6613 79.3281 44.6667 67.0001 44.6667H44.6667V0Z" fill="#FF7262"/>
<path d="M89.3334 66.9998C89.3334 79.3278 79.3281 89.3332 67.0001 89.3332C54.6721 89.3332 44.6667 79.3278 44.6667 66.9998C44.6667 54.6718 54.6721 44.6665 67.0001 44.6665C79.3281 44.6665 89.3334 54.6718 89.3334 66.9998Z" fill="#1ABCFE"/>
</svg>
