<svg width="135" height="153" viewBox="0 0 135 153" fill="none" xmlns="http://www.w3.org/2000/svg">
<path d="M134.268 0L122.036 137.032L67.0521 152.275L12.2195 137.053L0 0H134.268Z" fill="#E44D26"/>
<path d="M67.1343 140.623L111.564 128.306L122.017 11.2061H67.1343V140.623Z" fill="#F16529"/>
<path d="M43.3554 44.8241H67.1343V28.0151H24.9854L25.3875 32.5246L29.519 78.8457H67.1343V62.0367H44.8917L43.3554 44.8241ZM47.1438 87.2504H30.2701L32.6248 113.643L67.0569 123.201L67.1343 123.18V105.691L67.0606 105.711L48.3406 100.656L47.1438 87.2504Z" fill="#EBEBEB"/>
<path d="M67.0762 78.8457H87.7746L85.8231 100.646L67.0757 105.706V123.193L101.535 113.643L101.788 110.803L105.738 66.5504L106.148 62.0367H67.0762V78.8457ZM67.0762 44.783V44.8241H107.678L108.015 41.0462L108.781 32.5246L109.183 28.0151H67.0762V44.783Z" fill="white"/>
</svg>
