<svg width="122" height="122" viewBox="0 0 122 122" fill="none" xmlns="http://www.w3.org/2000/svg">
<path d="M122 0H0V122H122V0Z" fill="#F7DF1E"/>
<path d="M81.953 95.3129C84.4105 99.3254 87.6076 102.275 93.2622 102.275C98.0125 102.275 101.047 99.9005 101.047 96.6201C101.047 92.689 97.9292 91.2966 92.7006 89.0096L89.8346 87.7799C81.5619 84.2555 76.066 79.8402 76.066 70.5063C76.066 61.9082 82.6173 55.3628 92.8556 55.3628C100.145 55.3628 105.385 57.8996 109.161 64.5418L100.234 70.2739C98.2681 66.7495 96.1476 65.361 92.8556 65.361C89.4977 65.361 87.3694 67.4911 87.3694 70.2739C87.3694 73.7131 89.4996 75.1055 94.4183 77.2356L97.2844 78.4634C107.025 82.6404 112.525 86.8988 112.525 96.4729C112.525 106.794 104.417 112.449 93.5275 112.449C82.8806 112.449 76.0021 107.375 72.6365 100.725L81.953 95.3129ZM41.4548 96.3064C43.2558 99.5016 44.8941 102.203 48.8329 102.203C52.5994 102.203 54.9755 100.729 54.9755 94.9992V56.0173H66.4397V95.1542C66.4397 107.025 59.4799 112.428 49.3209 112.428C40.1419 112.428 34.8262 107.678 32.1228 101.956L41.4548 96.3064Z" fill="black"/>
</svg>
