<svg width="138" height="140" viewBox="0 0 138 140" fill="none" xmlns="http://www.w3.org/2000/svg">
<path d="M69 82.2045C75.7931 82.2045 81.2999 76.6877 81.2999 69.8825C81.2999 63.0773 75.7931 57.5605 69 57.5605C62.2068 57.5605 56.7 63.0773 56.7 69.8825C56.7 76.6877 62.2068 82.2045 69 82.2045Z" fill="#61DAFB"/>
<path d="M69 95.1272C105.451 95.1272 135 83.8246 135 69.8822C135 55.9398 105.451 44.6372 69 44.6372C32.5492 44.6372 3 55.9398 3 69.8822C3 83.8246 32.5492 95.1272 69 95.1272Z" stroke="#61DAFB" stroke-width="5"/>
<path d="M47.1761 82.5047C65.4014 114.128 89.9469 134.113 102 127.142C114.053 120.171 109.049 88.8833 90.8237 57.2597C72.5983 25.636 48.0529 5.65128 35.9999 12.6225C23.9469 19.5937 28.9507 50.881 47.1761 82.5047Z" stroke="#61DAFB" stroke-width="5"/>
<path d="M47.1761 57.2598C28.9507 88.8835 23.9469 120.171 35.9999 127.142C48.0529 134.113 72.5983 114.128 90.8237 82.5048C109.049 50.8811 114.053 19.5938 102 12.6226C89.9469 5.65142 65.4015 25.6362 47.1761 57.2598Z" stroke="#61DAFB" stroke-width="5"/>
</svg>
