<svg width="123" height="92" viewBox="0 0 123 92" fill="none" xmlns="http://www.w3.org/2000/svg">
<path d="M105.913 52.8872C101.622 52.9096 97.8921 53.9404 94.7693 55.4641C93.6235 53.2009 92.4777 51.1842 92.2755 49.7054C92.0508 47.98 91.7812 46.9269 92.0508 44.8654C92.3204 42.8039 93.5336 39.8685 93.5112 39.6445C93.4887 39.4204 93.2416 38.3673 90.7703 38.3449C88.299 38.3224 86.1646 38.8154 85.9175 39.4652C85.6704 40.115 85.1986 41.5939 84.884 43.1176C84.4572 45.3583 79.9414 53.3577 77.3578 57.5479C76.5265 55.9122 75.8076 54.4781 75.6504 53.3354C75.4257 51.61 75.1561 50.5568 75.4257 48.4954C75.6953 46.4339 76.9085 43.4985 76.886 43.2745C76.8635 43.0504 76.6164 41.9972 74.1451 41.9748C71.6738 41.9524 69.5395 42.4454 69.2924 43.0952C69.0452 43.745 68.7756 45.2687 68.2589 46.7476C67.7422 48.2265 61.7436 61.5812 60.171 65.032C59.3622 66.8022 58.6657 68.2138 58.1715 69.1773C58.1715 69.1773 58.149 69.2446 58.0816 69.3566C57.6547 70.1857 57.4076 70.6338 57.4076 70.6338C57.4076 70.6338 57.4076 70.6338 57.4076 70.6562C57.0706 71.2612 56.7112 71.8214 56.5314 71.8214C56.3966 71.8214 56.1495 70.2081 56.5764 68.0122C57.475 63.3738 59.6093 56.1587 59.5869 55.9122C59.5869 55.7778 59.9913 54.5229 58.1939 53.8731C56.4416 53.2233 55.8125 54.2989 55.6552 54.2989C55.498 54.2989 55.3856 54.6798 55.3856 54.6798C55.3856 54.6798 57.3402 46.5683 51.6562 46.5683C48.1065 46.5683 43.2088 50.4448 40.7825 53.9403C39.2547 54.7694 35.9971 56.5396 32.5148 58.4442C31.1893 59.1837 29.8188 59.9231 28.5383 60.6177C28.4484 60.5281 28.3585 60.4161 28.2687 60.3264C21.3939 52.9992 8.67793 47.8232 9.21713 37.9863C9.41932 34.4012 10.655 24.9901 33.6381 13.5623C52.5549 4.2633 67.6074 6.84015 70.2135 12.554C73.9429 20.7103 62.148 35.8576 42.6022 38.0536C35.1434 38.8826 31.2342 36.0145 30.2457 34.9389C29.2122 33.8186 29.055 33.7514 28.673 33.9754C28.044 34.3115 28.4484 35.3199 28.673 35.9025C29.2572 37.4262 31.6611 40.115 35.7275 41.4371C39.3221 42.6022 48.0616 43.2521 58.6433 39.1739C70.4831 34.6028 79.7392 21.8979 77.0208 11.2544C74.3024 0.454056 56.3292 -3.10871 39.3221 2.91886C29.2122 6.50404 18.2486 12.1507 10.3629 19.5003C0.994413 28.2391 -0.488371 35.8352 0.118223 39.0171C2.29747 50.3104 17.9116 57.66 24.1573 63.1049C23.8428 63.2842 23.5507 63.4411 23.3036 63.5755C20.1807 65.1216 8.27354 71.3284 5.30797 77.8938C1.938 85.333 5.84716 90.666 8.4308 91.383C16.4513 93.6013 24.6965 89.6128 29.1224 83.0251C33.5483 76.4373 33.0091 67.8777 30.9646 63.9564C30.9422 63.9116 30.9197 63.8668 30.8748 63.822C31.6835 63.3514 32.5148 62.8585 33.3236 62.3879C34.9187 61.4468 36.4914 60.5729 37.8394 59.8559C37.0755 61.9398 36.5138 64.427 36.2442 68.0122C35.9072 72.2247 37.6372 77.6921 39.9063 79.8432C40.9173 80.7843 42.108 80.8067 42.8718 80.8067C45.5229 80.8067 46.7136 78.6108 48.0391 76.0116C49.6567 72.8297 51.117 69.1325 51.117 69.1325C51.117 69.1325 49.2972 79.1262 54.2398 79.1262C56.0372 79.1262 57.8569 76.7958 58.6657 75.6082C58.6657 75.6306 58.6657 75.6306 58.6657 75.6306C58.6657 75.6306 58.7107 75.5634 58.8005 75.4066C58.9803 75.1153 59.0926 74.936 59.0926 74.936C59.0926 74.936 59.0926 74.9136 59.0926 74.8912C59.8115 73.6364 61.4291 70.7907 63.833 66.0627C66.9334 59.9679 69.9214 52.3494 69.9214 52.3494C69.9214 52.3494 70.191 54.2092 71.1121 57.3015C71.6513 59.1164 72.7746 61.1107 73.6733 63.0377C72.9544 64.0461 72.5051 64.6062 72.5051 64.6062C72.5051 64.6062 72.505 64.6062 72.5275 64.6286C71.9434 65.3905 71.3143 66.2196 70.6179 67.0262C68.169 69.9392 65.2484 73.2779 64.844 74.2414C64.3722 75.3842 64.4845 76.2132 65.3832 76.8855C66.0347 77.3784 67.203 77.4456 68.3937 77.3784C70.5954 77.2216 72.1456 76.6838 72.9094 76.3477C74.1002 75.9219 75.4931 75.2721 76.7961 74.3086C79.2001 72.5384 80.6604 70.0064 80.5256 66.6677C80.4582 64.8303 79.8516 62.9929 79.1102 61.2675C79.3348 60.9538 79.537 60.6401 79.7617 60.3264C83.5585 54.7918 86.5016 48.7194 86.5016 48.7194C86.5016 48.7194 86.7712 50.5793 87.6924 53.6715C88.1417 55.24 89.0628 56.9429 89.8716 58.6011C86.2994 61.4916 84.0977 64.8527 83.3114 67.0486C81.896 71.1268 82.9969 72.9642 85.0863 73.3899C86.0298 73.5916 87.3778 73.1434 88.3663 72.7177C89.6245 72.3144 91.1073 71.6197 92.5226 70.589C94.9265 68.8188 97.2406 66.354 97.1058 63.0153C97.0384 61.4916 96.634 59.9903 96.0723 58.5339C99.1053 57.279 103.014 56.5844 108.002 57.167C118.696 58.4218 120.808 65.0768 120.403 67.8777C119.999 70.6786 117.752 72.2023 117.011 72.6729C116.27 73.1434 116.023 73.3003 116.09 73.6364C116.18 74.1294 116.539 74.1069 117.168 74.0173C118.045 73.8605 122.785 71.7542 122.987 66.6005C123.324 60.0127 117.034 52.82 105.913 52.8872ZM23.4159 80.6275C19.8662 84.4815 14.9236 85.938 12.7893 84.7056C10.4977 83.3836 11.3964 77.6921 15.7549 73.614C18.4059 71.1268 21.8208 68.8188 24.0899 67.4072C24.6066 67.0935 25.3705 66.6453 26.2916 66.0851C26.4489 65.9955 26.5387 65.9507 26.5387 65.9507C26.7185 65.8386 26.8982 65.7266 27.0779 65.6146C28.6731 71.4405 27.1453 76.5717 23.4159 80.6275ZM49.2523 63.1049C48.0166 66.1075 45.433 73.7932 43.8604 73.3675C42.5124 73.009 41.6811 67.1831 43.5908 61.4244C44.5568 58.5339 46.6013 55.0831 47.792 53.7387C49.7241 51.5876 51.8584 50.8705 52.3751 51.7444C53.0267 52.8872 50.0162 61.2227 49.2523 63.1049ZM70.5729 73.2779C70.0562 73.5468 69.562 73.726 69.3373 73.5916C69.18 73.5019 69.562 73.1434 69.562 73.1434C69.562 73.1434 72.2355 70.2753 73.2914 68.9757C73.898 68.2138 74.6169 67.3175 75.3808 66.3092C75.3808 66.3988 75.3808 66.5109 75.3808 66.6005C75.3808 70.0288 72.0557 72.3368 70.5729 73.2779ZM87.0184 69.5358C86.6364 69.267 86.7038 68.3707 87.9844 65.5698C88.4787 64.4718 89.6469 62.6344 91.6464 60.8642C91.8711 61.5813 92.0284 62.2759 92.0059 62.9257C91.9834 67.2503 88.8831 68.8636 87.0184 69.5358Z" fill="#CD6799"/>
</svg>
