<svg width="234" height="48" viewBox="0 0 234 48" fill="none" xmlns="http://www.w3.org/2000/svg">
<path d="M24 0L29.3883 16.5836H46.8254L32.7185 26.8328L38.1068 43.4164L24 33.1672L9.89315 43.4164L15.2815 26.8328L1.17464 16.5836H18.6117L24 0Z" fill="#3C15EB"/>
<path d="M117 0L122.388 16.5836H139.825L125.719 26.8328L131.107 43.4164L117 33.1672L102.893 43.4164L108.281 26.8328L94.1746 16.5836H111.612L117 0Z" fill="#3C15EB"/>
<path d="M210 0L215.388 16.5836H232.825L218.719 26.8328L224.107 43.4164L210 33.1672L195.893 43.4164L201.281 26.8328L187.175 16.5836H204.612L210 0Z" fill="#3C15EB"/>
</svg>
