<svg width="121" height="121" viewBox="0 0 121 121" fill="none" xmlns="http://www.w3.org/2000/svg">
<path d="M109.184 0H11.8164C5.29039 0 0 5.29039 0 11.8164V109.184C0 115.71 5.29039 121 11.8164 121H109.184C115.71 121 121 115.71 121 109.184V11.8164C121 5.29039 115.71 0 109.184 0Z" fill="#3178C6"/>
<path d="M109.184 0H11.8164C5.29039 0 0 5.29039 0 11.8164V109.184C0 115.71 5.29039 121 11.8164 121H109.184C115.71 121 121 115.71 121 109.184V11.8164C121 5.29039 115.71 0 109.184 0Z" fill="#3178C6"/>
<path fill-rule="evenodd" clip-rule="evenodd" d="M74.9016 96.2858V108.117C76.8248 109.103 79.0995 109.842 81.7256 110.335C84.3517 110.828 87.1193 111.074 90.029 111.074C92.8647 111.074 95.5583 110.803 98.1104 110.261C100.663 109.719 102.9 108.825 104.824 107.58C106.747 106.336 108.269 104.709 109.391 102.7C110.513 100.691 111.074 98.2083 111.074 95.2506C111.074 93.1062 110.754 91.2269 110.113 89.6126C109.471 87.9982 108.547 86.5625 107.339 85.3055C106.13 84.0484 104.682 82.9207 102.993 81.9224C101.304 80.9242 99.3989 79.9815 97.2783 79.0943C95.7249 78.4534 94.3318 77.8311 93.0989 77.2273C91.8659 76.6232 90.8181 76.0071 89.955 75.3787C89.0919 74.7501 88.4262 74.0846 87.9578 73.3822C87.4894 72.6796 87.2549 71.8849 87.2549 70.9975C87.2549 70.1843 87.4646 69.4509 87.8838 68.7977C88.3031 68.1445 88.8948 67.5839 89.6591 67.1155C90.4236 66.6474 91.3604 66.2837 92.47 66.0249C93.5798 65.7661 94.8125 65.6368 96.1688 65.6368C97.155 65.6368 98.1967 65.7108 99.294 65.8585C100.391 66.0064 101.495 66.2345 102.604 66.5424C103.714 66.8506 104.793 67.2389 105.841 67.7071C106.889 68.1755 107.856 68.7176 108.744 69.3339V58.2795C106.944 57.5894 104.978 57.078 102.845 56.7452C100.712 56.4125 98.2645 56.2461 95.503 56.2461C92.6919 56.2461 90.029 56.5481 87.514 57.1519C84.999 57.7558 82.786 58.6985 80.8748 59.9801C78.9638 61.2619 77.4537 62.8947 76.3441 64.8789C75.2346 66.8629 74.6797 69.2352 74.6797 71.9957C74.6797 75.5203 75.6968 78.5273 77.7312 81.0168C79.7652 83.5061 82.8536 85.6134 86.9962 87.3388C88.6235 88.0043 90.14 88.6573 91.5455 89.2982C92.9509 89.9392 94.1654 90.6047 95.1885 91.2947C96.2118 91.9848 97.0193 92.7366 97.6113 93.55C98.2031 94.3632 98.499 95.2875 98.499 96.3229C98.499 97.0869 98.3139 97.7954 97.9441 98.4486C97.5742 99.1018 97.0132 99.6686 96.2612 100.149C95.5092 100.63 94.5721 101.006 93.4503 101.277C92.3282 101.548 91.0154 101.683 89.5112 101.683C86.9468 101.683 84.4072 101.234 81.8919 100.334C79.3769 99.4346 77.0467 98.0852 74.9016 96.2858ZM55.0125 67.1366H70.1895V57.4277H27.8867V67.1366H42.9895V110.365H55.0125V67.1366Z" fill="white"/>
</svg>
