<svg width="1920" height="286" viewBox="0 0 1920 286" fill="none" xmlns="http://www.w3.org/2000/svg">
<g filter="url(#filter0_d_10_25)">
<path d="M246.807 102.023C91.3286 -2.24958 17.4863 85.6465 0 142.628V285H1920V97.5108L1916.5 81.9702C1868.04 13.7923 1805.88 7.28156 1773.11 48.3826C1663.2 186.242 1498.83 111.046 1461.36 77.9597C1419.44 40.9433 1313.47 -34.3333 1163.59 62.4192C1013.71 159.172 1015.34 107.859 982.233 77.9597C927.276 28.3303 775.894 74.4506 736.425 152.153C696.956 229.856 565.558 234.869 548.072 234.869C533.217 234.869 441.155 232.363 246.807 102.023Z" fill="#FBFBFB"/>
<path d="M246.807 102.023C91.3286 -2.24958 17.4863 85.6465 0 142.628V285H1920V97.5108L1916.5 81.9702C1868.04 13.7923 1805.88 7.28156 1773.11 48.3826C1663.2 186.242 1498.83 111.046 1461.36 77.9597C1419.44 40.9433 1313.47 -34.3333 1163.59 62.4192C1013.71 159.172 1015.34 107.859 982.233 77.9597C927.276 28.3303 775.894 74.4506 736.425 152.153C696.956 229.856 565.558 234.869 548.072 234.869C533.217 234.869 441.155 232.363 246.807 102.023Z" stroke="white"/>
</g>
<defs>
<filter id="filter0_d_10_25" x="-16.5" y="0.499969" width="1937" height="285" filterUnits="userSpaceOnUse" color-interpolation-filters="sRGB">
<feFlood flood-opacity="0" result="BackgroundImageFix"/>
<feColorMatrix in="SourceAlpha" type="matrix" values="0 0 0 0 0 0 0 0 0 0 0 0 0 0 0 0 0 0 127 0" result="hardAlpha"/>
<feOffset dx="-12" dy="-10"/>
<feGaussianBlur stdDeviation="2"/>
<feComposite in2="hardAlpha" operator="out"/>
<feColorMatrix type="matrix" values="0 0 0 0 0 0 0 0 0 0 0 0 0 0 0 0 0 0 0.25 0"/>
<feBlend mode="normal" in2="BackgroundImageFix" result="effect1_dropShadow_10_25"/>
<feBlend mode="normal" in="SourceGraphic" in2="effect1_dropShadow_10_25" result="shape"/>
</filter>
</defs>
</svg>
