<svg width="578" height="115" viewBox="0 0 578 115" fill="none" xmlns="http://www.w3.org/2000/svg">
<path d="M14.0799 20.476C14.0799 19.996 14.1039 19.408 14.1519 18.712C14.1999 18.04 14.2959 17.344 14.4399 16.624L18.3999 16.732C18.3279 17.428 18.2559 18.088 18.1839 18.712C18.1359 19.336 18.1119 19.984 18.1119 20.656C18.1119 21.736 18.2559 22.624 18.5439 23.32C18.8319 24.04 19.2759 24.556 19.8759 24.868C20.4999 25.204 21.2679 25.372 22.1799 25.372C23.5719 25.372 24.6399 24.952 25.3839 24.112C26.1279 23.296 26.4999 22.144 26.4999 20.656V18.676H6.80786V13.204L30.4959 13.204V21.412C30.4959 23.38 30.1839 25.084 29.5599 26.524C28.9599 27.964 28.1079 29.08 27.0039 29.872C25.9239 30.664 24.6279 31.06 23.1159 31.06C21.8679 31.06 20.6919 30.796 19.5879 30.268C18.5079 29.74 17.5479 28.996 16.7079 28.036C15.8919 27.1 15.2439 25.984 14.7639 24.688C14.3079 23.392 14.0799 21.988 14.0799 20.476ZM6.26786 46.2211C6.26786 43.8691 6.77186 41.7691 7.77986 39.9211C8.81186 38.0971 10.2399 36.6691 12.0639 35.6371C13.8879 34.6051 15.9639 34.0891 18.2919 34.0891C20.2599 34.0891 22.0239 34.4251 23.5839 35.0971C25.1439 35.7691 26.4759 36.7051 27.5799 37.9051C28.6839 39.1051 29.5359 40.4971 30.1359 42.0811C30.7359 43.6651 31.0359 45.3691 31.0359 47.1931C31.0359 49.5451 30.5199 51.6211 29.4879 53.4211C28.4799 55.2451 27.0639 56.6731 25.2399 57.7051C23.4399 58.7371 21.3519 59.2531 18.9759 59.2531C17.0319 59.2531 15.2799 58.9171 13.7199 58.2451C12.1599 57.5731 10.8159 56.6371 9.68786 55.4371C8.58386 54.2611 7.73186 52.8811 7.13186 51.2971C6.55586 49.7371 6.26786 48.0451 6.26786 46.2211ZM10.1199 47.1571C10.1199 48.4051 10.4319 49.4611 11.0559 50.3251C11.7039 51.2131 12.6159 51.8851 13.7919 52.3411C14.9919 52.7971 16.4079 53.0251 18.0399 53.0251C20.0319 53.0251 21.6999 52.7251 23.0439 52.1251C24.3879 51.5491 25.4079 50.7571 26.1039 49.7491C26.7999 48.7411 27.1479 47.5891 27.1479 46.2931C27.1479 45.0931 26.8359 44.0491 26.2119 43.1611C25.6119 42.2971 24.7119 41.6251 23.5119 41.1451C22.3119 40.6651 20.8719 40.4251 19.1919 40.4251C17.2479 40.4251 15.5919 40.7251 14.2239 41.3251C12.8799 41.9251 11.8599 42.7291 11.1639 43.7371C10.4679 44.7691 10.1199 45.9091 10.1199 47.1571ZM6.80786 64.2509H30.4959V72.7469C30.4959 74.5229 30.2439 76.0709 29.7399 77.3909C29.2359 78.7109 28.5039 79.7309 27.5439 80.4509C26.5839 81.1949 25.4199 81.5669 24.0519 81.5669C23.0199 81.5669 22.0119 81.3149 21.0279 80.8109C20.0439 80.3069 19.1679 79.6229 18.3999 78.7589C17.6319 77.8949 17.0199 76.9109 16.5639 75.8069C16.1079 74.7029 15.8799 73.5509 15.8799 72.3509V66.3389H19.4439V72.4589C19.4439 73.1549 19.6119 73.7549 19.9479 74.2589C20.3079 74.7869 20.7759 75.1949 21.3519 75.4829C21.9519 75.7949 22.5879 75.9509 23.2599 75.9509C24.2919 75.9509 25.0959 75.6029 25.6719 74.9069C26.2479 74.2109 26.5359 73.1789 26.5359 71.8109V69.6149H6.80786V64.2509ZM6.37586 82.3229C6.37586 81.2909 6.51986 80.3909 6.80786 79.6229C7.09586 78.8789 7.53986 78.2069 8.13986 77.6069C8.73986 77.0309 9.51986 76.4429 10.4799 75.8429L17.1039 71.8829L18.7239 75.9509L12.3879 80.9909C11.7639 81.4949 11.2839 81.9509 10.9479 82.3589C10.6119 82.7669 10.3839 83.1509 10.2639 83.5109C10.1439 83.8949 10.0839 84.2429 10.0839 84.5549C10.0839 84.7229 10.0959 84.9269 10.1199 85.1669C10.1439 85.4309 10.2039 85.6709 10.2999 85.8869L7.38386 86.9309C6.99986 86.0429 6.73586 85.2269 6.59186 84.4829C6.44786 83.7389 6.37586 83.0189 6.37586 82.3229ZM6.80786 93.0289H30.4959V98.7169H6.80786V93.0289ZM26.1759 85.5409H30.4959L30.4959 106.277H26.1759L26.1759 85.5409Z" fill="#3C15EB"/>
<path d="M39.38 107V14.88H92.02V19.92H45.54V107H39.38ZM41.76 65.84V60.66H86.7V65.84H41.76ZM154.039 107.98C144.986 107.98 136.912 105.973 129.819 101.96C122.819 97.9467 117.266 92.3933 113.159 85.3C109.146 78.2067 107.139 70.18 107.139 61.22C107.139 54.3133 108.352 47.9667 110.779 42.18C113.206 36.3 116.566 31.26 120.859 27.06C125.246 22.86 130.332 19.64 136.119 17.4C141.906 15.0667 148.159 13.9 154.879 13.9C163.932 13.9 171.959 15.9067 178.959 19.92C185.959 23.9333 191.466 29.4867 195.479 36.58C199.586 43.58 201.639 51.6067 201.639 60.66C201.639 67.5667 200.426 73.96 197.999 79.84C195.572 85.6267 192.166 90.62 187.779 94.82C183.486 99.02 178.446 102.287 172.659 104.62C166.966 106.86 160.759 107.98 154.039 107.98ZM154.879 103.22C162.719 103.22 169.626 101.447 175.599 97.9C181.666 94.3533 186.379 89.4533 189.739 83.2C193.192 76.8533 194.919 69.62 194.919 61.5C194.919 53.1 193.146 45.68 189.599 39.24C186.052 32.8 181.152 27.76 174.899 24.12C168.739 20.48 161.739 18.66 153.899 18.66C146.152 18.66 139.246 20.4333 133.179 23.98C127.206 27.5267 122.492 32.4733 119.039 38.82C115.679 45.0733 113.999 52.26 113.999 60.38C113.999 68.78 115.772 76.2 119.319 82.64C122.866 89.08 127.719 94.12 133.879 97.76C140.132 101.4 147.132 103.22 154.879 103.22ZM226.275 107V14.88H232.435V107H226.275ZM228.655 107V101.96H282.835V107H228.655ZM304.097 107V14.88H310.397V107H304.097ZM383.18 107.98C374.126 107.98 366.053 105.973 358.96 101.96C351.96 97.9467 346.406 92.3933 342.3 85.3C338.286 78.2067 336.28 70.18 336.28 61.22C336.28 54.3133 337.493 47.9667 339.92 42.18C342.346 36.3 345.706 31.26 350 27.06C354.386 22.86 359.473 19.64 365.26 17.4C371.046 15.0667 377.3 13.9 384.02 13.9C393.073 13.9 401.1 15.9067 408.1 19.92C415.1 23.9333 420.606 29.4867 424.62 36.58C428.726 43.58 430.78 51.6067 430.78 60.66C430.78 67.5667 429.566 73.96 427.14 79.84C424.713 85.6267 421.306 90.62 416.92 94.82C412.626 99.02 407.586 102.287 401.8 104.62C396.106 106.86 389.9 107.98 383.18 107.98ZM384.02 103.22C391.86 103.22 398.766 101.447 404.74 97.9C410.806 94.3533 415.52 89.4533 418.88 83.2C422.333 76.8533 424.06 69.62 424.06 61.5C424.06 53.1 422.286 45.68 418.74 39.24C415.193 32.8 410.293 27.76 404.04 24.12C397.88 20.48 390.88 18.66 383.04 18.66C375.293 18.66 368.386 20.4333 362.32 23.98C356.346 27.5267 351.633 32.4733 348.18 38.82C344.82 45.0733 343.14 52.26 343.14 60.38C343.14 68.78 344.913 76.2 348.46 82.64C352.006 89.08 356.86 94.12 363.02 97.76C369.273 101.4 376.273 103.22 384.02 103.22Z" fill="#735CDD"/>
</svg>
